<mxfile host="app.diagrams.net" modified="2022-01-18T18:23:03.586Z" agent="5.0 (Macintosh; Intel Mac OS X 10_15_7) AppleWebKit/605.1.15 (KHTML, like Gecko) Version/15.2 Safari/605.1.15" etag="iDWBbS_qkZ1O25KGeWq_" version="16.3.0" type="github">
  <diagram id="Jw4_ig7ZFBmBJu4mwPdB" name="페이지-1">
    <mxGraphModel dx="946" dy="648" grid="1" gridSize="10" guides="1" tooltips="1" connect="1" arrows="1" fold="1" page="1" pageScale="1" pageWidth="827" pageHeight="1169" math="0" shadow="0">
      <root>
        <mxCell id="0" />
        <mxCell id="1" parent="0" />
        <mxCell id="8tDsNataWyvr0pyAlab6-1" value="frame" style="shape=umlFrame;whiteSpace=wrap;html=1;" vertex="1" parent="1">
          <mxGeometry x="350" y="140" width="200" height="240" as="geometry" />
        </mxCell>
        <mxCell id="8tDsNataWyvr0pyAlab6-2" value="좌석도 관리" style="ellipse;whiteSpace=wrap;html=1;" vertex="1" parent="1">
          <mxGeometry x="380" y="180" width="140" height="70" as="geometry" />
        </mxCell>
        <mxCell id="8tDsNataWyvr0pyAlab6-3" value="관객" style="shape=umlActor;verticalLabelPosition=bottom;verticalAlign=top;html=1;" vertex="1" parent="1">
          <mxGeometry x="250" y="230" width="30" height="60" as="geometry" />
        </mxCell>
        <mxCell id="8tDsNataWyvr0pyAlab6-4" value="관리자" style="shape=umlActor;verticalLabelPosition=bottom;verticalAlign=top;html=1;" vertex="1" parent="1">
          <mxGeometry x="640" y="180" width="30" height="60" as="geometry" />
        </mxCell>
        <mxCell id="8tDsNataWyvr0pyAlab6-5" value="공연 예매" style="ellipse;whiteSpace=wrap;html=1;" vertex="1" parent="1">
          <mxGeometry x="380" y="280" width="140" height="70" as="geometry" />
        </mxCell>
        <mxCell id="8tDsNataWyvr0pyAlab6-6" value="공연예매&lt;br&gt;&lt;br&gt;좌석 선택(선점)&lt;br&gt;티켓 구매&lt;br&gt;좌석 선택 -&amp;gt; 공연-&amp;gt;시간(회차)-&amp;gt;좌석-&amp;gt;결제" style="shape=note;whiteSpace=wrap;html=1;backgroundOutline=1;darkOpacity=0.05;" vertex="1" parent="1">
          <mxGeometry x="160" y="400" width="320" height="100" as="geometry" />
        </mxCell>
      </root>
    </mxGraphModel>
  </diagram>
</mxfile>
